<?xml version="1.0" encoding="UTF-8"?>
<svg width="86px" height="77px" viewBox="0 0 86 77" version="1.1" xmlns="http://www.w3.org/2000/svg" xmlns:xlink="http://www.w3.org/1999/xlink">
    <!-- Generator: Sketch 53.2 (72643) - https://sketchapp.com -->
    <title>taxi</title>
    <desc>Created with Sketch.</desc>
    <g id="taxi" stroke="none" stroke-width="1" fill="none" fill-rule="evenodd">
        <g id="strazh" fill="#ff9100" fill-rule="nonzero">
            <path d="M82.958,45.494 C81.547,44.083 79.671,43.306 77.675,43.306 C77.661,43.306 77.647,43.306 77.633,43.307 C77.563,43.304 71.305,43.394 68.327,36.398 C67.476,34.398 67.204,32.147 67.119,31.099 C68.931,29.069 69.92,26.481 69.92,23.74 C69.92,18.079 65.649,13.405 60.16,12.751 L60.16,1.749 C60.16,0.92 59.488,0.249 58.66,0.249 L1.903,0.249 C1.074,0.249 0.403,0.92 0.403,1.749 L0.403,75.098 C0.403,75.926 1.074,76.598 1.903,76.598 L58.66,76.598 C59.488,76.598 60.16,75.926 60.16,75.098 L60.16,64.122 L81.144,64.122 C81.972,64.122 82.644,63.45 82.644,62.622 L82.644,58.101 L83.644,58.101 C84.472,58.101 85.144,57.429 85.144,56.601 L85.144,50.776 C85.146,48.781 84.369,46.906 82.958,45.494 Z M66.92,23.74 C66.92,25.908 66.07,27.945 64.527,29.474 C64.234,29.765 64.073,30.162 64.083,30.575 C64.087,30.726 64.187,34.327 65.567,37.572 C69.268,46.271 77.106,46.304 77.688,46.305 C78.877,46.309 79.996,46.774 80.836,47.615 C81.68,48.459 82.145,49.581 82.144,50.774 L82.1440016,55.1 L81.471,55.1 C81.366,55.077 81.257,55.062 81.144,55.062 C81.031,55.062 80.923,55.077 80.817,55.1 L35.541,55.1 L35.541,50.774 C35.541,48.324 37.523,46.327 39.968,46.304 C40.85,46.353 48.116,46.457 51.952,37.808 C53.267,34.845 53.54,30.756 53.551,30.583 C53.578,30.155 53.42,29.735 53.117,29.431 C51.602,27.908 50.768,25.886 50.768,23.739 C50.768,19.286 54.39,15.664 58.842,15.664 C63.297,15.665 66.92,19.287 66.92,23.74 Z M57.16,73.598 L3.403,73.598 L3.403,3.249 L57.16,3.249 L57.16,12.807 C51.851,13.622 47.768,18.207 47.768,23.74 C47.768,26.445 48.733,29.005 50.5,31.023 C50.379,32.187 50.036,34.73 49.209,36.592 C46.096,43.612 40.359,43.324 40.126,43.309 C40.087,43.306 40.047,43.304 40.008,43.304 C35.89,43.304 32.539,46.655 32.539,50.774 L32.539,56.6 C32.539,57.428 33.21,58.1 34.039,58.1 L35.221,58.1 L35.258,62.633 C35.265,63.457 35.934,64.121 36.758,64.121 L57.158,64.121 L57.158,73.598 L57.16,73.598 Z M79.645,61.122 L59.028,61.122 C58.91,61.092 58.788,61.071 58.66,61.071 C58.532,61.071 58.411,61.092 58.292,61.122 L38.248,61.122 L38.223,58.101 L79.645,58.101 L79.645,61.122 Z M15,16 L20,16 C20.5522847,16 21,16.4477153 21,17 L21,22 C21,22.5522847 20.5522847,23 20,23 L15,23 C14.4477153,23 14,22.5522847 14,22 L14,17 C14,16.4477153 14.4477153,16 15,16 Z M22,23 L27,23 C27.5522847,23 28,23.4477153 28,24 L28,29 C28,29.5522847 27.5522847,30 27,30 L22,30 C21.4477153,30 21,29.5522847 21,29 L21,24 C21,23.4477153 21.4477153,23 22,23 Z M8,23 L13,23 C13.5522847,23 14,23.4477153 14,24 L14,29 C14,29.5522847 13.5522847,30 13,30 L8,30 C7.44771525,30 7,29.5522847 7,29 L7,24 C7,23.4477153 7.44771525,23 8,23 Z M36,23 L41,23 C41.5522847,23 42,23.4477153 42,24 L42,29 C42,29.5522847 41.5522847,30 41,30 L36,30 C35.4477153,30 35,29.5522847 35,29 L35,24 C35,23.4477153 35.4477153,23 36,23 Z M29,16 L34,16 C34.5522847,16 35,16.4477153 35,17 L35,22 C35,22.5522847 34.5522847,23 34,23 L29,23 C28.4477153,23 28,22.5522847 28,22 L28,17 C28,16.4477153 28.4477153,16 29,16 Z" id="Shape"></path>
        </g>
    </g>
</svg>
